<svg width="24" height="24" viewBox="0 0 24 24" fill="none" xmlns="http://www.w3.org/2000/svg">
<path d="M11.9999 12.1C11.9447 12.0999 11.9 12.0552 11.9 12C11.9 11.9448 11.9448 11.9 12 11.9C12.0552 11.9 12.0999 11.9447 12.1 11.9999C12.1 12.0264 12.0895 12.0519 12.0707 12.0707C12.0519 12.0895 12.0264 12.1 11.9999 12.1" stroke="black" stroke-width="2.5" stroke-linecap="round" stroke-linejoin="round"/>
<path d="M11.9999 19.1C11.9447 19.0999 11.9 19.0552 11.9 19C11.9 18.9448 11.9448 18.9 12 18.9C12.0552 18.9 12.0999 18.9447 12.1 18.9999C12.1 19.0264 12.0895 19.0519 12.0707 19.0707C12.0519 19.0895 12.0264 19.1 11.9999 19.1" stroke="black" stroke-width="2.5" stroke-linecap="round" stroke-linejoin="round"/>
<path d="M11.9999 5.1C11.9447 5.09993 11.9 5.05516 11.9 4.99996C11.9 4.94476 11.9448 4.90002 12 4.9C12.0552 4.89998 12.0999 4.94468 12.1 4.99988C12.1 5.02644 12.0895 5.05193 12.0707 5.07071C12.0519 5.08949 12.0264 5.10003 11.9999 5.1" stroke="black" stroke-width="2.5" stroke-linecap="round" stroke-linejoin="round"/>
</svg>
