<svg width="24" height="24" viewBox="0 0 24 24" fill="none" xmlns="http://www.w3.org/2000/svg">
<path fill-rule="evenodd" clip-rule="evenodd" d="M13.712 8.73296L12.7665 7.78736C12.5815 7.60235 12.3305 7.49841 12.0689 7.49841C11.8072 7.49841 11.5563 7.60235 11.3713 7.78736L8.2294 10.9293C8.08314 11.0755 8.00098 11.2739 8.00098 11.4807V13.2485C8.00098 13.3865 8.11291 13.4985 8.25098 13.4985H10.0184C10.2254 13.4985 10.424 13.4162 10.5704 13.2698L13.7121 10.1281C13.8971 9.9431 14.001 9.69217 14.001 9.43053C14.001 9.16889 13.897 8.91797 13.712 8.73296V8.73296Z" stroke="#323232" stroke-width="1.5" stroke-linecap="round" stroke-linejoin="round"/>
<path d="M16.001 16.4984H8.00098" stroke="#323232" stroke-width="1.5" stroke-linecap="round" stroke-linejoin="round"/>
<rect x="3.00098" y="2.99841" width="18" height="18" rx="5" stroke="#323232" stroke-width="1.5" stroke-linecap="round" stroke-linejoin="round"/>
</svg>
