<svg width="24" height="24" viewBox="0 0 24 24" fill="none" xmlns="http://www.w3.org/2000/svg">
<path d="M6.75031 17.5005C6.75014 17.6386 6.63815 17.7504 6.5001 17.7503C6.36206 17.7503 6.25016 17.6384 6.2501 17.5003C6.25005 17.3623 6.36184 17.2503 6.49989 17.2501C6.56633 17.25 6.63008 17.2764 6.67706 17.3234C6.72404 17.3703 6.7504 17.4341 6.75031 17.5005" stroke="black" stroke-width="1.5" stroke-linecap="round" stroke-linejoin="round"/>
<path d="M16.7193 7.92963C17.6154 7.63401 18.5961 8.00473 19.0726 8.81915L20.7261 11.6465C20.9959 12.1077 21.0699 12.6576 20.9317 13.1736C20.7935 13.6897 20.4545 14.129 19.9904 14.3935C17.4477 15.8428 13.5132 18.0855 9.93823 20.1231C8.92916 20.6983 7.7876 21.0005 6.62612 21M6.50012 21C8.43312 21 10.0001 19.433 10.0001 17.5V5C10.0001 3.89543 9.10469 3 8.00012 3H5.00012C3.89555 3 3.00012 3.89543 3.00012 5V17.5C3.00012 19.433 4.56713 21 6.50012 21ZM6.50012 21C8.16825 21.0008 9.71146 20.1161 10.5536 18.6762C12.6786 15.0426 14.9552 11.1497 16.5037 8.50189C16.7734 8.04068 16.8474 7.49073 16.7091 6.97464C16.5709 6.45856 16.2318 6.01926 15.7676 5.7547L12.8813 4.10956C11.9292 3.56692 10.7177 3.89155 10.1645 4.83756L10.0001 5.11859" stroke="black" stroke-width="1.5" stroke-linecap="round" stroke-linejoin="round"/>
</svg>
