<svg width="24" height="24" viewBox="0 0 24 24" fill="none" xmlns="http://www.w3.org/2000/svg">
<path fill-rule="evenodd" clip-rule="evenodd" d="M16.165 2.99805H5.00799C3.89799 2.99805 2.99999 3.90205 3.00799 5.01305L3.11199 19.013C3.11999 20.112 4.01299 20.998 5.11199 20.998H18.993C20.098 20.998 20.993 20.103 20.993 18.998V7.82605C20.993 7.29605 20.782 6.78705 20.407 6.41205L17.579 3.58405C17.204 3.20905 16.696 2.99805 16.165 2.99805Z" stroke="black" stroke-width="1.5" stroke-linecap="round" stroke-linejoin="round"/>
<path d="M15.994 2.99805V6.90705C15.994 7.45905 15.546 7.90705 14.994 7.90705H8.99402C8.44202 7.90705 7.99402 7.45905 7.99402 6.90705V2.99805" stroke="black" stroke-width="1.5" stroke-linecap="round" stroke-linejoin="round"/>
<path d="M7.00098 20.998V13.284C7.00098 12.574 7.57698 11.998 8.28698 11.998H15.716C16.425 11.998 17.001 12.574 17.001 13.284V20.998" stroke="black" stroke-width="1.5" stroke-linecap="round" stroke-linejoin="round"/>
</svg>
