<svg width="24" height="24" viewBox="0 0 24 24" fill="none" xmlns="http://www.w3.org/2000/svg">
<path d="M10.4011 5.37226H5.11459C4.55377 5.37226 4.01591 5.59505 3.61935 5.99161C3.22279 6.38818 3 6.92603 3 7.48685V19.1171C3 19.6779 3.22279 20.2158 3.61935 20.6123C4.01591 21.0089 4.55377 21.2317 5.11459 21.2317H16.7448C17.3057 21.2317 17.8435 21.0089 18.2401 20.6123C18.6366 20.2158 18.8594 19.6779 18.8594 19.1171V13.8306M17.3644 3.87725C17.5595 3.67528 17.7928 3.51419 18.0508 3.40337C18.3088 3.29254 18.5863 3.23421 18.867 3.23177C19.1478 3.22933 19.4263 3.28283 19.6861 3.38916C19.946 3.49548 20.1821 3.65249 20.3806 3.85104C20.5792 4.04958 20.7362 4.28568 20.8425 4.54556C20.9489 4.80543 21.0024 5.08388 20.9999 5.36465C20.9975 5.64543 20.9391 5.9229 20.8283 6.18089C20.7175 6.43888 20.5564 6.67221 20.3544 6.86728L11.2765 15.9452H8.28647V12.9552L17.3644 3.87725Z" stroke="black" stroke-width="1.5" stroke-linecap="round" stroke-linejoin="round"/>
</svg>
