<svg width="24" height="24" viewBox="0 0 24 24" fill="none" xmlns="http://www.w3.org/2000/svg">
<path d="M13.5 10H11C8.51472 10 6.5 12.0147 6.5 14.5V14.5C6.5 15.6935 6.97411 16.8381 7.81802 17.682C8.66193 18.5259 9.80652 19 11 19H16.5C18.9853 19 21 16.9853 21 14.5V14.5C20.9982 13.5523 20.6949 12.6298 20.134 11.866" stroke="black" stroke-width="1.35" stroke-linecap="round" stroke-linejoin="round"/>
<path d="M10.5 14H13C15.4853 14 17.5 11.9853 17.5 9.5V9.5C17.5 7.01472 15.4853 5 13 5H7.5C5.01472 5 3 7.01472 3 9.5H3C3.00177 10.4477 3.30507 11.3702 3.866 12.134" stroke="black" stroke-width="1.35" stroke-linecap="round" stroke-linejoin="round"/>
</svg>
