<svg width="24" height="24" viewBox="0 0 24 24" fill="none" xmlns="http://www.w3.org/2000/svg">
<path d="M10 3H18C19.6569 3 21 4.34315 21 6V14M17 17.1C12.7143 14.4333 7.28571 14.4333 3 17.1M7 10.126C7.20339 10.1258 7.39979 10.1953 7.55567 10.3232L7.62012 10.3818L7.67871 10.4473C7.80573 10.6033 7.87464 10.7991 7.87403 11.002L7.875 11.0029C7.87315 11.4856 7.48073 11.8761 6.99805 11.875C6.51529 11.8738 6.12446 11.4818 6.125 10.999L6.12989 10.9092C6.17521 10.4698 6.54534 10.1279 6.9961 10.126H7ZM13.8889 7H6.11111C4.39289 7 3 8.39289 3 10.1111V17.8889C3 19.6071 4.39289 21 6.11111 21H13.8889C14.714 21 15.5053 20.6722 16.0888 20.0888C16.6722 19.5053 17 18.714 17 17.8889V10.1111C17 8.39289 15.6071 7 13.8889 7Z" stroke="black" stroke-width="1.5" stroke-linecap="round" stroke-linejoin="round"/>
</svg>
