<svg width="24" height="24" viewBox="0 0 24 24" fill="none" xmlns="http://www.w3.org/2000/svg">
<path d="M11.75 2C17.1462 2 21.5 6.35379 21.5 11.75C21.5 17.1462 17.1462 21.5 11.75 21.5C6.35379 21.5 2 17.1462 2 11.75C2 6.35379 6.35379 2 11.75 2ZM4.39746 15.5C5.52036 17.7044 7.60262 19.3323 10.1016 19.8359C9.13611 18.5086 8.43958 17.0366 8.01172 15.5H4.39746ZM15.4893 15.5C15.0614 17.0368 14.3639 18.5085 13.3984 19.8359C15.8974 19.3323 17.9796 17.7044 19.1025 15.5H15.4893ZM9.57812 15.5C10.0327 16.9398 10.7569 18.3049 11.75 19.5117C12.743 18.3049 13.4663 16.9397 13.9209 15.5H9.57812ZM3.81152 9.5C3.61032 10.2151 3.5 10.9692 3.5 11.75C3.5 12.5308 3.61032 13.2849 3.81152 14H7.68457C7.44271 12.5112 7.44273 10.9889 7.68457 9.5H3.81152ZM9.2041 9.5C8.93279 10.9855 8.93276 12.5145 9.2041 14H14.2959C14.5672 12.5146 14.5672 10.9854 14.2959 9.5H9.2041ZM15.8154 9.5C16.0573 10.9889 16.0573 12.5111 15.8154 14H19.6885C19.8897 13.2849 20 12.5308 20 11.75C20 10.9692 19.8897 10.2151 19.6885 9.5H15.8154ZM10.1016 3.66309C7.60254 4.16669 5.52039 5.79557 4.39746 8H8.01172C8.43963 6.46313 9.13588 4.99057 10.1016 3.66309ZM11.75 3.9873C10.7567 5.19434 10.0328 6.55994 9.57812 8H13.9209C13.4663 6.56007 12.7432 5.19425 11.75 3.9873ZM13.3984 3.66309C14.3642 4.99068 15.0614 6.46296 15.4893 8H19.1025C17.9796 5.79557 15.8975 4.16669 13.3984 3.66309Z" fill="black"/>
</svg>
