<svg width="24" height="24" viewBox="0 0 24 24" fill="none" xmlns="http://www.w3.org/2000/svg">
<path d="M7.62268 13.9961C9.09326 13.9961 10.3507 14.9034 10.8688 16.1885C11.2064 16.0394 11.5678 15.961 11.9362 15.9609C12.3043 15.961 12.6651 16.0395 13.0026 16.1885C13.5212 14.9045 14.7789 13.9981 16.2487 13.998C18.1816 13.998 19.7484 15.5652 19.7487 17.498C19.7487 19.4311 18.1817 20.998 16.2487 20.998C14.4182 20.998 12.9166 19.5932 12.7623 17.8027C12.4982 17.5635 12.206 17.461 11.9362 17.4609C11.6654 17.461 11.3718 17.5638 11.1071 17.8047C10.9507 19.593 9.45162 20.9961 7.62268 20.9961C5.68971 20.996 4.12276 19.4291 4.12268 17.4961C4.12277 15.5631 5.68972 13.9962 7.62268 13.9961ZM16.2487 15.498C15.1718 15.4981 14.2959 16.3497 14.2526 17.416C14.2584 17.4694 14.2581 17.523 14.2526 17.5762C14.2935 18.6447 15.1702 19.498 16.2487 19.498C17.3533 19.498 18.2487 18.6027 18.2487 17.498C18.2484 16.3936 17.3531 15.498 16.2487 15.498ZM7.62268 15.4961C6.51816 15.4962 5.62277 16.3915 5.62268 17.4961C5.62276 18.6007 6.51816 19.496 7.62268 19.4961C8.70201 19.4961 9.57812 18.641 9.6178 17.5713C9.61279 17.5207 9.61253 17.4696 9.6178 17.4189C9.5772 16.3501 8.7014 15.4961 7.62268 15.4961ZM11.9996 10.3301C15.0742 10.3301 18.1904 10.9578 20.6051 12.2539C20.9701 12.4498 21.1067 12.9046 20.9108 13.2695C20.7147 13.634 20.2608 13.7708 19.8961 13.5752C17.7539 12.4253 14.8967 11.8301 11.9996 11.8301C9.10271 11.8302 6.24614 12.4253 4.10413 13.5752C3.73925 13.7707 3.28433 13.6343 3.0885 13.2695C2.89275 12.9047 3.03056 12.4499 3.39514 12.2539C5.80964 10.9578 8.9253 10.3302 11.9996 10.3301ZM14.9713 3C16.2344 3.00021 17.3112 3.91342 17.5192 5.1582L18.1813 9.12695C18.2491 9.53529 17.9734 9.92205 17.5651 9.99023C17.1568 10.0583 16.7703 9.78216 16.7018 9.37402L16.0397 5.40527C15.9524 4.88305 15.5008 4.50021 14.9713 4.5H8.91077C8.41461 4.5 7.98531 4.83693 7.86194 5.30957L7.84143 5.40527L7.18127 9.37402C7.11286 9.78202 6.72615 10.058 6.31799 9.99023C5.90956 9.92221 5.63303 9.53537 5.70081 9.12695L6.36194 5.1582C6.56992 3.91301 7.64859 3 8.91077 3H14.9713Z" fill="black"/>
</svg>
