<svg width="24" height="24" viewBox="0 0 24 24" fill="none" xmlns="http://www.w3.org/2000/svg">
<path fill-rule="evenodd" clip-rule="evenodd" d="M19 16.9754L13 20.2469C12.3812 20.5844 11.6188 20.5844 11 20.2469L5 16.9754C4.38121 16.6379 4.00002 16.0144 4 15.3396V8.66043C4.00002 7.9856 4.38121 7.36205 5 7.02464L11 3.75306C11.6188 3.41565 12.3812 3.41565 13 3.75306L19 7.02464C19.6188 7.36205 20 7.9856 20 8.66043V15.3396C20 16.0144 19.6188 16.6379 19 16.9754Z" stroke="black" stroke-width="1.35" stroke-linecap="round" stroke-linejoin="round"/>
<path d="M19.5 8L13.0347 11.2421C12.3944 11.586 11.6056 11.586 10.9653 11.2421L4.5 8" stroke="black" stroke-width="1.35" stroke-linecap="round" stroke-linejoin="round"/>
<path d="M12 20V11.5" stroke="black" stroke-width="1.35" stroke-linecap="round" stroke-linejoin="round"/>
</svg>
