<svg width="24" height="24" viewBox="0 0 24 24" fill="none" xmlns="http://www.w3.org/2000/svg">
<path d="M11.5263 20.0526C6.81695 20.0526 3 16.2357 3 11.5263C3 6.81695 6.81695 3 11.5263 3C16.2357 3 20.0526 6.81695 20.0526 11.5263M3.48316 8.68421H19.5695M3.48316 14.3684H11.5263M21 21L19.2351 19.2351M15.3158 11.5263C15.3158 8.90779 14.6308 6.28926 13.2628 4.00421C12.4604 2.66558 10.5922 2.66558 9.79074 4.00421C7.05284 8.57526 7.05284 14.4783 9.79074 19.0494C10.1915 19.7182 10.8594 20.0536 11.5273 20.0536M17.2105 14.3684C18.7803 14.3684 20.0526 15.6407 20.0526 17.2105C20.0526 18.7803 18.7803 20.0526 17.2105 20.0526C15.6407 20.0526 14.3684 18.7803 14.3684 17.2105C14.3684 15.6407 15.6407 14.3684 17.2105 14.3684Z" stroke="black" stroke-width="1.5" stroke-linecap="round" stroke-linejoin="round"/>
</svg>
