<svg width="24" height="24" viewBox="0 0 24 24" fill="none" xmlns="http://www.w3.org/2000/svg">
<path fill-rule="evenodd" clip-rule="evenodd" d="M11.75 15.7516C11.75 13.5416 13.5416 11.75 15.7516 11.75C13.5416 11.75 11.75 9.95835 11.75 7.74829C11.75 9.95835 9.95835 11.75 7.74829 11.75C9.95835 11.75 11.75 13.5416 11.75 15.7516Z" stroke="black" stroke-width="1.5" stroke-linecap="round" stroke-linejoin="round"/>
<path fill-rule="evenodd" clip-rule="evenodd" d="M18.6898 7.81036C18.6898 6.15282 20.0336 4.80911 21.6911 4.80911C20.0336 4.80911 18.6898 3.46541 18.6898 1.80786C18.6898 3.46541 17.3461 4.80911 15.6886 4.80911C16.4846 4.80911 17.248 5.12531 17.8108 5.68816C18.3736 6.251 18.6898 7.01438 18.6898 7.81036V7.81036Z" stroke="black" stroke-width="1.5" stroke-linecap="round" stroke-linejoin="round"/>
<path d="M20.7537 10.7495V16.752C20.7537 18.9621 18.9621 20.7537 16.752 20.7537H6.74788C4.53782 20.7537 2.74622 18.9621 2.74622 16.752V6.74788C2.74622 4.53782 4.53782 2.74622 6.74788 2.74622H12.7504" stroke="black" stroke-width="1.5" stroke-linecap="round" stroke-linejoin="round"/>
</svg>
