<svg width="24" height="24" viewBox="0 0 24 24" fill="none" xmlns="http://www.w3.org/2000/svg">
<path d="M15.0879 4.76343C15.7708 4.08091 16.8787 4.08078 17.5615 4.76343L19.2373 6.44019C19.8774 7.08046 19.9177 8.09418 19.3574 8.78101L19.2373 8.91382L17.4053 10.7449C17.3942 10.7576 17.3832 10.7708 17.3711 10.783C17.3608 10.7932 17.3486 10.8017 17.3379 10.8113L8.91016 19.239C8.58179 19.5682 8.13647 19.7507 7.67383 19.7507H4.99902C4.58487 19.7507 4.24912 19.4149 4.24902 19.0007V16.3259C4.2491 15.8627 4.4327 15.4171 4.7627 15.0886L15.0879 4.76343ZM5.82227 16.1501L5.82129 16.1521C5.77571 16.1975 5.7491 16.2596 5.74902 16.3259V18.2507H7.67383C7.74028 18.2507 7.80318 18.2251 7.84863 18.1794L7.84961 18.1775L15.7783 10.2507L13.75 8.22241L5.82227 16.1501ZM16.501 5.82495C16.4039 5.72784 16.2455 5.72784 16.1484 5.82495L14.8105 7.16187L16.8389 9.19019L18.1768 7.85327C18.2738 7.75624 18.2736 7.59786 18.1768 7.50073L16.501 5.82495Z" fill="black"/>
</svg>
