<svg width="24" height="24" viewBox="0 0 24 24" fill="none" xmlns="http://www.w3.org/2000/svg">
<path d="M17 17V19C17.0001 19.5305 16.7895 20.0393 16.4144 20.4144C16.0393 20.7895 15.5305 21.0001 15 21H6C5.46952 21.0001 4.96073 20.7895 4.58563 20.4144C4.21052 20.0393 3.99985 19.5305 4 19V8C3.99985 7.46952 4.21052 6.96073 4.58563 6.58563C4.96073 6.21052 5.46952 5.99985 6 6H8M19.9984 7.5H16.9984C16.17 7.5 15.4984 6.82843 15.4984 6V3M19.9984 15V7.02843C19.9984 6.49799 19.7877 5.98928 19.4126 5.61421L17.3842 3.58579C17.0092 3.21071 16.5004 3 15.97 3H9.99844C8.89387 3 7.99844 3.89543 7.99844 5V15C7.99844 16.1046 8.89387 17 9.99844 17H17.9984C19.103 17 19.9984 16.1046 19.9984 15Z" stroke="black" stroke-width="1.5" stroke-linecap="round" stroke-linejoin="round"/>
</svg>
