<svg width="24" height="24" viewBox="0 0 24 24" fill="none" xmlns="http://www.w3.org/2000/svg">
<path d="M15.9641 6.03599C17.3451 4.65499 19.5831 4.65499 20.9641 6.03599V6.03599C22.3451 7.41699 22.3451 9.65499 20.9641 11.036L15.0851 16.915C13.7041 18.296 11.4661 18.296 10.0851 16.915V16.915C8.70407 15.534 8.70407 13.296 10.0851 11.915L10.9641 11.036" stroke="black" stroke-width="1.5" stroke-linecap="round" stroke-linejoin="round"/>
<path d="M8.03599 18.964C6.65499 20.345 4.41699 20.345 3.03599 18.964V18.964C1.65499 17.583 1.65499 15.345 3.03599 13.964L8.91499 8.08501C10.296 6.70401 12.534 6.70401 13.915 8.08501V8.08501C15.296 9.46601 15.296 11.704 13.915 13.085L13 14" stroke="black" stroke-width="1.5" stroke-linecap="round" stroke-linejoin="round"/>
</svg>
