<svg width="24" height="24" viewBox="0 0 24 24" fill="none" xmlns="http://www.w3.org/2000/svg">
<path d="M16.0016 13.0004V17.3843C16.0016 17.7632 15.7875 18.1096 15.4486 18.2791L13.0317 19.4876C12.7723 19.6173 12.4694 19.628 12.2014 19.517C11.9335 19.406 11.7269 19.1843 11.6352 18.9091L10.9995 17.0021M6.99788 13.0004L5.09093 12.3648C4.8158 12.2731 4.59401 12.0665 4.48303 11.7986C4.37204 11.5306 4.38279 11.2277 4.51249 10.9683L5.72099 8.55138C5.89044 8.21248 6.23682 7.99836 6.61572 7.99836H10.9995M17.0977 12.1235L11.6988 16.4427C11.3007 16.7612 10.7269 16.7294 10.3664 16.369L7.63104 13.6336C7.27058 13.2731 7.2388 12.6993 7.55725 12.3012L11.8764 6.90224C13.8515 4.43344 16.8417 2.99628 20.0033 2.99628C20.5558 2.99628 21.0037 3.44418 21.0037 3.99669C21.0037 7.15831 19.5666 10.1485 17.0977 12.1235ZM5.74746 20.5905L2.99622 21.0038L3.40954 18.2525C3.54362 17.36 4.24424 16.6594 5.13675 16.5253C5.7817 16.4284 6.43437 16.6433 6.89553 17.1045C7.3567 17.5657 7.57163 18.2183 7.47472 18.8633C7.34061 19.7558 6.63997 20.4564 5.74746 20.5905Z" stroke="black" stroke-width="1.5" stroke-linecap="round" stroke-linejoin="round"/>
</svg>
