<svg width="24" height="24" viewBox="0 0 24 24" fill="none" xmlns="http://www.w3.org/2000/svg">
<path d="M14.9972 7.74826H8.99872M12 6.24763L12.004 7.74826M13.5006 7.74826C13.5006 10.6505 11.4848 13.0004 8.99872 13.0004M15.0012 13.0004C13.8582 12.9851 12.7723 12.4986 12 11.6559M13.0004 17.0021H18.0025C18.7985 17.0022 19.5619 16.686 20.1247 16.1231C20.6876 15.5603 21.0037 14.7969 21.0037 14.0009V5.99753C21.0037 5.20153 20.6876 4.43812 20.1247 3.87527C19.5619 3.31241 18.7985 2.99628 18.0025 2.99628H5.99747C5.20147 2.99628 4.43806 3.31241 3.87521 3.87527C3.31235 4.43812 2.99622 5.20153 2.99622 5.99753V14.0009C2.99622 14.7969 3.31235 15.5603 3.87521 16.1231C4.43806 16.686 5.20147 17.0022 5.99747 17.0021H7.9983V21.0038L13.0004 17.0021Z" stroke="black" stroke-width="1.5" stroke-linecap="round" stroke-linejoin="round"/>
</svg>
