<svg width="24" height="24" viewBox="0 0 24 24" fill="none" xmlns="http://www.w3.org/2000/svg">
<path d="M14 9V5.5C14 4.672 13.328 4 12.5 4V4C11.672 4 11 4.672 11 5.5V9" stroke="black" stroke-width="1.5" stroke-linecap="round" stroke-linejoin="round"/>
<path d="M14 6.5C14 5.672 14.672 5 15.5 5V5C16.328 5 17 5.672 17 6.5V9" stroke="black" stroke-width="1.5" stroke-linecap="round" stroke-linejoin="round"/>
<path d="M7.99994 8H7.77494C6.95794 8 6.17494 8.324 5.59794 8.902V8.902C4.90694 9.593 4.58494 10.57 4.72994 11.536L5.23294 14.89C5.67394 17.827 8.19694 20 11.1669 20H13.9999C17.3139 20 19.9999 17.314 19.9999 14V11V8.5C19.9999 7.672 19.3279 7 18.4999 7V7C17.6719 7 16.9999 7.672 16.9999 8.5" stroke="black" stroke-width="1.5" stroke-linecap="round" stroke-linejoin="round"/>
<path d="M8 11V6.5C8 5.672 8.672 5 9.5 5V5C10.328 5 11 5.672 11 6.5" stroke="black" stroke-width="1.5" stroke-linecap="round" stroke-linejoin="round"/>
</svg>
