<svg width="24" height="24" viewBox="0 0 24 24" fill="none" xmlns="http://www.w3.org/2000/svg">
<path d="M18.2188 4.21973C18.5116 3.9269 18.9864 3.92703 19.2793 4.21973C19.5722 4.51262 19.5722 4.98738 19.2793 5.28027L14.5176 10.041C14.5141 10.0446 14.5113 10.0492 14.5078 10.0527C14.5042 10.0563 14.4997 10.059 14.4961 10.0625L10.0625 14.4961C10.0591 14.4997 10.0563 14.5043 10.0527 14.5078C10.0491 14.5114 10.0447 14.5141 10.041 14.5176L7.25684 17.3018C7.24176 17.3182 7.22618 17.3338 7.20996 17.3486L5.2793 19.2803C4.98639 19.573 4.51158 19.5731 4.21875 19.2803C3.92611 18.9874 3.92611 18.5126 4.21875 18.2197L5.59082 16.8457C4.23451 15.6526 3.06422 14.1581 2.20801 12.5752V12.5742C1.93109 12.061 1.93109 11.44 2.20801 10.9268L2.39844 10.584C3.37666 8.87935 4.71458 7.2963 6.24902 6.11035C7.88155 4.84869 9.78675 4 11.75 4C13.5025 4.00015 15.2086 4.67823 16.7158 5.72168L18.2188 4.21973ZM18.3408 8.10059C18.6557 7.83165 19.1294 7.86892 19.3984 8.18359C20.0309 8.92401 20.6039 9.72534 21.0889 10.5645L21.291 10.9258V10.9268C21.5535 11.4133 21.5632 11.9946 21.3281 12.4912C21.3171 12.5191 21.3056 12.5472 21.291 12.5742C20.2995 14.408 18.8867 16.1248 17.25 17.3896C15.6174 18.6513 13.7124 19.5 11.749 19.5L11.3945 19.4902C10.5684 19.4473 9.75484 19.257 8.97461 18.9551C8.58855 18.8056 8.39674 18.3705 8.5459 17.9844C8.69549 17.5985 9.12956 17.4065 9.51562 17.5557C10.2617 17.8444 11.0132 17.9999 11.749 18C13.2806 18 14.8714 17.3317 16.333 16.2021C17.7878 15.0778 19.0667 13.5318 19.9668 11.8701C19.9683 11.8673 19.9692 11.8641 19.9707 11.8613C20.0077 11.7926 20.0077 11.7073 19.9707 11.6387C19.4998 10.768 18.9167 9.92964 18.2578 9.1582C17.989 8.84331 18.0261 8.36958 18.3408 8.10059ZM11.75 5.5C10.2185 5.5 8.6276 6.16827 7.16602 7.29785C5.70868 8.4243 4.42771 9.97411 3.52734 11.6396C3.4907 11.7081 3.49071 11.7929 3.52734 11.8613L3.7002 12.1719C4.47561 13.522 5.49727 14.782 6.65332 15.7832L8.5127 13.9248C7.49179 12.4085 7.65126 10.3333 8.99219 8.99219C10.3333 7.65103 12.4093 7.49067 13.9258 8.51172L15.6357 6.80078C14.3738 5.975 13.0408 5.50015 11.75 5.5ZM12.8301 9.60742C11.9301 9.15381 10.8041 9.30133 10.0527 10.0527C9.30146 10.8042 9.15375 11.9301 9.60742 12.8301L12.8301 9.60742Z" fill="black"/>
</svg>
