<svg width="24" height="24" viewBox="0 0 24 24" fill="none" xmlns="http://www.w3.org/2000/svg">
<path d="M19.0039 6.24805C20.5227 6.24806 21.7539 7.47927 21.7539 8.99805V19.0039C21.7538 20.5226 20.5226 21.7539 19.0039 21.7539H8.99805C7.47931 21.7539 6.24813 20.5226 6.24805 19.0039V8.99805C6.24805 7.47926 7.47926 6.24805 8.99805 6.24805H19.0039ZM8.99805 7.74805C8.30769 7.74805 7.74805 8.30769 7.74805 8.99805V19.0039C7.74813 19.6942 8.30774 20.2539 8.99805 20.2539H19.0039C19.6942 20.2539 20.2538 19.6942 20.2539 19.0039V8.99805C20.2539 8.3077 19.6943 7.74806 19.0039 7.74805H8.99805ZM15.001 2.24609C16.5202 2.24609 17.7519 3.4779 17.752 4.99707C17.7519 5.41121 17.4161 5.74706 17.002 5.74707C16.5878 5.74707 16.252 5.41122 16.252 4.99707C16.2519 4.30632 15.6917 3.74609 15.001 3.74609H4.99707C4.3063 3.74609 3.74618 4.30632 3.74609 4.99707V15.001C3.74609 15.6918 4.30625 16.252 4.99707 16.252C5.41117 16.252 5.74699 16.5879 5.74707 17.002C5.74706 17.4161 5.41121 17.7519 4.99707 17.752C3.47783 17.752 2.24609 16.5202 2.24609 15.001V4.99707C2.24618 3.4779 3.47788 2.24609 4.99707 2.24609H15.001Z" fill="black"/>
</svg>
