<svg width="24" height="24" viewBox="0 0 24 24" fill="none" xmlns="http://www.w3.org/2000/svg">
<path d="M7.48118 18.351L10.5812 20.751C10.9812 21.151 11.8812 21.351 12.4812 21.351H16.2812C17.4812 21.351 18.7812 20.451 19.0812 19.251L21.4812 11.951C21.9812 10.551 21.0812 9.351 19.5812 9.351H15.5812C14.9812 9.351 14.4812 8.851 14.5812 8.151L15.0812 4.95101C15.2812 4.05101 14.6812 3.05101 13.7812 2.75101C12.9812 2.45101 11.9812 2.85101 11.5812 3.45101L7.48118 9.551M2.38 18.3474V8.54742C2.38 7.14742 2.98 6.64742 4.38001 6.64742H5.38001C6.78001 6.64742 7.38001 7.14742 7.38001 8.54742V18.3474C7.38001 19.7474 6.78001 20.2474 5.38001 20.2474H4.38001C2.98 20.2474 2.38 19.7474 2.38 18.3474Z" stroke="black" stroke-width="1.5" stroke-linecap="round" stroke-linejoin="round"/>
</svg>
