<svg width="24" height="24" viewBox="0 0 24 24" fill="none" xmlns="http://www.w3.org/2000/svg">
<path d="M9.43785 6.06705C10.5778 4.02202 11.1478 2.99951 12 2.99951C12.8522 2.99951 13.4222 4.02202 14.5622 6.06705L14.8571 6.59612C15.181 7.17725 15.343 7.46782 15.5956 7.65954C15.8481 7.85126 16.1626 7.92242 16.7917 8.06475L17.3644 8.19434C19.5781 8.69521 20.685 8.94565 20.9483 9.79247C21.2117 10.6393 20.4571 11.5217 18.9479 13.2864L18.5575 13.743C18.1286 14.2445 17.9142 14.4952 17.8177 14.8055C17.7213 15.1157 17.7537 15.4502 17.8185 16.1193L17.8775 16.7285C18.1057 19.083 18.2198 20.2603 17.5304 20.7837C16.8409 21.3071 15.8046 20.8299 13.7319 19.8756L13.1957 19.6287C12.6067 19.3575 12.3122 19.2219 12 19.2219C11.6878 19.2219 11.3933 19.3575 10.8043 19.6287L10.2681 19.8756C8.19541 20.8299 7.15906 21.3071 6.46963 20.7837C5.78021 20.2603 5.89429 19.0831 6.12246 16.7285L6.18149 16.1193C6.24632 15.4502 6.27874 15.1157 6.18228 14.8055C6.08581 14.4952 5.87138 14.2445 5.44253 13.743L5.05209 13.2864C3.54292 11.5217 2.78834 10.6393 3.05168 9.79247C3.31502 8.94565 4.42187 8.69521 6.63558 8.19434L7.2083 8.06476C7.83737 7.92242 8.1519 7.85126 8.40445 7.65954C8.657 7.46782 8.81897 7.17725 9.14292 6.59612L9.43785 6.06705Z" stroke="black" stroke-width="1.5"/>
</svg>
