<svg width="24" height="24" viewBox="0 0 24 24" fill="none" xmlns="http://www.w3.org/2000/svg">
<path d="M9.14733 5.32432V16.1768M15.1329 7.51152V18.6812M3.91309 8.47989V16.6026C3.91309 18.1887 5.04008 18.8399 6.40916 18.0551L8.37096 16.9365C8.79671 16.6944 9.5063 16.6694 9.94875 16.8948L14.3315 19.0903C14.7739 19.3074 15.4835 19.2907 15.9093 19.0486L19.524 16.9782C19.9831 16.7111 20.3671 16.0599 20.3671 15.5257V7.40299C20.3671 5.81686 19.2402 5.16571 17.8711 5.95043L15.9093 7.06907C15.4835 7.31116 14.7739 7.33621 14.3315 7.11081L9.94875 4.92361C9.5063 4.70656 8.79671 4.72326 8.37096 4.96535L4.75624 7.03568C4.28875 7.30282 3.91309 7.95397 3.91309 8.47989Z" stroke="black" stroke-width="1.35" stroke-linecap="round" stroke-linejoin="round"/>
</svg>
