<svg width="24" height="24" viewBox="0 0 24 24" fill="none" xmlns="http://www.w3.org/2000/svg">
<path d="M18.6771 4.89655C20.5204 6.73981 21.6614 9.1536 21.6614 11.7868C21.6614 17.1411 17.185 21.5298 11.7868 21.5298C10.163 21.5298 8.58307 21.0909 7.1348 20.3448L2 21.6614L3.3605 16.6144C2.52665 15.1661 2.04389 13.4984 2.04389 11.7429C2.04389 6.38871 6.4326 2 11.7868 2C14.4201 2 16.8777 3.05329 18.6771 4.89655ZM11.7868 19.8621C16.2633 19.8621 19.9937 16.2194 19.9937 11.7868C19.9937 9.59248 19.0721 7.57367 17.536 6.03762C16 4.50157 13.9812 3.66771 11.8307 3.66771C7.35423 3.66771 3.7116 7.31034 3.7116 11.7429C3.7116 13.279 4.15047 14.7712 4.94044 16.0878L5.15987 16.395L4.32602 19.3793L7.39812 18.5455L7.66144 18.721C8.93417 19.4671 10.3386 19.8621 11.7868 19.8621ZM16.2633 13.8056C16.4828 13.9373 16.6583 13.9812 16.7022 14.1129C16.79 14.2006 16.79 14.6834 16.5705 15.2539C16.3511 15.8245 15.3856 16.3511 14.9467 16.395C14.1567 16.5266 13.5423 16.4828 12.0063 15.7806C9.54859 14.7273 7.96865 12.2696 7.83699 12.1379C7.70533 11.9624 6.87147 10.8213 6.87147 9.59248C6.87147 8.40752 7.48589 7.83699 7.70533 7.57367C7.92476 7.31034 8.18809 7.26646 8.36364 7.26646C8.4953 7.26646 8.67085 7.26646 8.80251 7.26646C8.97806 7.26646 9.1536 7.22257 9.37304 7.70533C9.54859 8.18809 10.0752 9.37304 10.1191 9.5047C10.163 9.63636 10.2069 9.76802 10.1191 9.94357C9.68025 10.8652 9.1536 10.8213 9.41693 11.2602C10.3824 12.884 11.3041 13.4545 12.7524 14.1567C12.9718 14.2884 13.1034 14.2445 13.279 14.1129C13.4107 13.9373 13.8934 13.3668 14.0251 13.1473C14.2006 12.884 14.3762 12.9279 14.5956 13.0157C14.815 13.1034 16 13.674 16.2633 13.8056Z" fill="black"/>
</svg>
