<svg width="24" height="24" viewBox="0 0 24 24" fill="none" xmlns="http://www.w3.org/2000/svg">
<path d="M11.75 4C13.7133 4.00008 15.6184 4.84859 17.251 6.11035C18.7853 7.29627 20.1224 8.87944 21.1006 10.584L21.292 10.9268L21.3828 11.124C21.5645 11.5937 21.5343 12.1251 21.292 12.5742L21.291 12.5752C20.2995 14.4086 18.8874 16.1249 17.251 17.3896C15.6185 18.6513 13.7133 19.4999 11.75 19.5C9.78667 19.5 7.8816 18.6514 6.24902 17.3896C4.71454 16.2037 3.37667 14.6207 2.39844 12.916L2.20801 12.5732C1.93109 12.06 1.93109 11.439 2.20801 10.9258V10.9248C3.19956 9.09119 4.61243 7.37512 6.24902 6.11035C7.8816 4.84871 9.78664 4 11.75 4ZM11.75 5.5C10.2184 5.5 8.62765 6.16734 7.16602 7.29688C5.70847 8.42327 4.42779 9.97343 3.52734 11.6387C3.49071 11.7071 3.4907 11.7919 3.52734 11.8604L3.70117 12.1709C4.58909 13.7177 5.79971 15.1461 7.16602 16.2021C8.62765 17.3318 10.2184 18 11.75 18C13.2814 17.9999 14.8715 17.3325 16.333 16.2031C17.7905 15.0768 19.0712 13.5265 19.9717 11.8613C20.0084 11.7928 20.0085 11.7082 19.9717 11.6396C19.0713 9.974 17.7905 8.42432 16.333 7.29785C14.8715 6.16824 13.2815 5.50008 11.75 5.5ZM9.12402 9.12402C10.5746 7.67364 12.9255 7.67355 14.376 9.12402L14.5078 9.26172C15.8254 10.7197 15.7811 12.9707 14.376 14.376C12.9255 15.8265 10.5746 15.8264 9.12402 14.376C7.6735 12.9255 7.6735 10.5745 9.12402 9.12402ZM13.1924 9.97656C12.2947 9.24463 10.9705 9.29718 10.1338 10.1338C9.24117 11.0264 9.24117 12.4736 10.1338 13.3662C11.0264 14.2587 12.4736 14.2588 13.3662 13.3662C14.2028 12.5295 14.2553 11.2053 13.5234 10.3076L13.3662 10.1338L13.1924 9.97656Z" fill="black"/>
</svg>
