<svg width="24" height="24" viewBox="0 0 24 24" fill="none" xmlns="http://www.w3.org/2000/svg">
<path d="M16.5192 5.64899L13.4192 3.24899C13.0192 2.84899 12.1192 2.64899 11.5192 2.64899H7.71924C6.51924 2.64899 5.21924 3.54899 4.91924 4.74899L2.51924 12.049C2.01924 13.449 2.91924 14.649 4.41924 14.649H8.41924C9.01924 14.649 9.51924 15.149 9.41924 15.849L8.91924 19.049C8.71924 19.949 9.31924 20.949 10.2192 21.249C11.0192 21.549 12.0192 21.149 12.4192 20.549L16.5192 14.449M21.6198 5.65055V15.4505C21.6198 16.8505 21.0198 17.3505 19.6198 17.3505H18.6198C17.2198 17.3505 16.6198 16.8505 16.6198 15.4505V5.65055C16.6198 4.25055 17.2198 3.75055 18.6198 3.75055H19.6198C21.0198 3.75055 21.6198 4.25055 21.6198 5.65055Z" stroke="black" stroke-width="1.5" stroke-linecap="round" stroke-linejoin="round"/>
</svg>
