<svg width="24" height="24" viewBox="0 0 24 24" fill="none" xmlns="http://www.w3.org/2000/svg">
<path d="M18.0502 9.50007C18.0502 9.48679 18.0449 9.47404 18.0356 9.46465M14.5858 5.08579L15.7071 6.20711C15.8946 6.39464 16.149 6.5 16.4142 6.5H19C20.1046 6.5 21 7.39543 21 8.5V17.5C21 18.6046 20.1046 19.5 19 19.5H5C3.89543 19.5 3 18.6046 3 17.5V8.5C3 7.39543 3.89543 6.5 5 6.5H7.58579C7.851 6.5 8.10535 6.39464 8.29289 6.20711L9.41421 5.08579C9.78928 4.71071 10.298 4.5 10.8284 4.5H13.1716C13.702 4.5 14.2107 4.71071 14.5858 5.08579ZM15.9998 12.5C15.9998 14.7091 14.2089 16.5 11.9998 16.5C9.79067 16.5 7.9998 14.7091 7.9998 12.5C7.9998 10.2908 9.79067 8.49998 11.9998 8.49998C14.2089 8.49998 15.9998 10.2908 15.9998 12.5Z" stroke="black" stroke-width="1.5" stroke-linecap="round" stroke-linejoin="round"/>
</svg>
