<svg width="100" height="28" viewBox="0 0 100 28" fill="none" xmlns="http://www.w3.org/2000/svg">
<path d="M6.69662 21.5321H3.51722V24.6775H6.69662V21.5321Z" fill="black"/>
<path d="M15.8393 21.4943H8.06574V19.2713H15.8393C17.7865 19.2713 19.3686 17.6986 19.3686 15.763V8.73126C19.3686 6.79563 17.7865 5.22294 15.8393 5.22294H8.76551C6.81832 5.22294 5.23623 6.79563 5.23623 8.73126V13.0788H3V8.73126C3 5.57075 5.58611 3 8.76551 3H15.8393C19.0187 3 21.6048 5.57075 21.6048 8.73126V15.763C21.6048 18.9235 19.0187 21.4943 15.8393 21.4943Z" fill="black"/>
<path d="M30.83 21.9895H28.5887V8.87893H30.83V9.93679C31.4254 9.08703 32.2659 8.6188 33.299 8.6188C35.7505 8.6188 37.2563 10.4744 37.2563 13.5092C37.2563 16.6655 35.7154 18.4344 33.299 18.4344C32.2659 18.4344 31.4079 18.0008 30.83 17.1684V21.9895ZM32.8963 10.457C31.548 10.457 30.83 11.5322 30.83 13.5092C30.83 15.4862 31.583 16.5961 32.8963 16.5961C34.227 16.5961 34.945 15.5036 34.945 13.5092C34.945 11.5496 34.2095 10.457 32.8963 10.457Z" fill="black"/>
<path d="M44.7139 14.2723V8.87893H46.9552V18.1742H44.7139V16.9256C44.101 17.9488 43.1379 18.4344 41.9822 18.4344C40.1261 18.4344 38.8829 17.3245 38.8829 15.0874V8.87893H41.1242V14.6365C41.1242 15.9024 41.6495 16.5961 42.7527 16.5961C43.9609 16.5961 44.7139 15.5209 44.7139 14.2723Z" fill="black"/>
<path d="M57.148 12.1739H54.9067C54.6966 10.96 53.9611 10.457 53.0156 10.457C51.6322 10.457 50.8968 11.5496 50.8968 13.5439C50.8968 15.5036 51.6673 16.5961 53.0856 16.5961C54.0487 16.5961 54.7316 16.0758 54.9592 15.018H57.2181C56.7978 17.3418 55.1518 18.4344 53.0331 18.4344C50.2664 18.4344 48.5854 16.5614 48.5854 13.5439C48.5854 10.3877 50.319 8.6188 53.0156 8.6188C55.1518 8.6188 56.8328 9.79805 57.148 12.1739Z" fill="black"/>
<path d="M58.7702 18.1742V5.688H61.0115V10.1275C61.6244 9.12172 62.605 8.6188 63.7957 8.6188C65.6693 8.6188 66.9475 9.72868 66.9475 11.9831V18.1742H64.7062V12.434C64.7062 11.1681 64.1634 10.457 63.0252 10.457C61.782 10.457 61.0115 11.5322 61.0115 12.7809V18.1742H58.7702Z" fill="black"/>
<path d="M73.0755 18.4344C70.2913 18.4344 68.5753 16.5788 68.5753 13.5439C68.5753 10.3877 70.3439 8.6188 73.0755 8.6188C75.8421 8.6188 77.5582 10.4917 77.5582 13.5439C77.5582 16.6655 75.7896 18.4344 73.0755 18.4344ZM73.0755 16.5961C74.4938 16.5961 75.2468 15.5209 75.2468 13.5439C75.2468 11.5669 74.4763 10.457 73.0755 10.457C71.6396 10.457 70.8867 11.5496 70.8867 13.5439C70.8867 15.5036 71.6572 16.5961 73.0755 16.5961Z" fill="black"/>
<path d="M78.7914 18.1742V15.729H81.2604V18.1742H78.7914Z" fill="black"/>
<path d="M85.3774 11.9311H83.1185C83.4162 9.86742 84.9396 8.6188 87.3035 8.6188C89.9126 8.6188 91.2433 10.1449 91.2433 12.2953V15.9024C91.2433 17.047 91.3484 17.6886 91.5235 18.1742H89.1946C89.0721 17.8621 89.0195 17.4112 89.002 16.9083C88.2316 17.9835 87.0759 18.4344 85.9552 18.4344C84.1166 18.4344 82.8033 17.5326 82.8033 15.7463C82.8033 14.4804 83.5213 13.5266 84.9571 13.0583C86.2003 12.6421 87.4086 12.5381 88.9845 12.5207V12.2953C88.9845 11.0987 88.4067 10.457 87.1634 10.457C86.0953 10.457 85.5174 11.0467 85.3774 11.9311ZM85.0622 15.625C85.0622 16.336 85.6225 16.7869 86.5331 16.7869C87.9164 16.7869 88.9845 15.677 88.9845 14.2896V13.8908C85.7976 13.9428 85.0622 14.6885 85.0622 15.625Z" fill="black"/>
<path d="M93.3806 7.83841V5.688H95.6219V7.83841H93.3806ZM93.3806 18.1742V8.87893H95.6219V18.1742H93.3806Z" fill="black"/>
</svg>
